<?xml version="1.0" encoding="iso-8859-1"?>
<!-- Generator: Adobe Illustrator 24.1.0, SVG Export Plug-In . SVG Version: 6.00 Build 0)  -->
<svg version="1.1" xmlns="http://www.w3.org/2000/svg" xmlns:xlink="http://www.w3.org/1999/xlink" x="0px" y="0px"
	 viewBox="0 0 512 512" style="enable-background:new 0 0 512 512;" xml:space="preserve">
<g id="_x34_1_x2C__Call_x2C__Hospital_Phone_x2C__Communications_x2C__Emergency_x2C__Security">
	<g>
		<path d="M499.503,415.533l-77.782-77.782c-11.696-11.697-30.729-11.697-42.426,0l-37.083,37.084
			c-56.316-33.409-171.653-148.746-205.061-205.062l37.083-37.083c11.697-11.697,11.697-30.729,0-42.427L96.452,12.482
			C84.754,0.786,65.722,0.787,54.026,12.483C-6.252,72.761-13.27,168.284,37.801,236.741c0.087,0.1,88.901,126.625,210.562,217.389
			c16.273,9.505,55.351,54.159,129.637,54.159c45.577,0,89.297-18.124,121.502-50.329
			C511.229,446.235,511.227,427.257,499.503,415.533z M485.36,443.818c-29.247,29.247-68.322,44.22-107.567,44.218
			c-66.78-0.004-101.011-40.342-117.471-49.937C140.955,349.048,53.919,224.883,53.832,224.782
			C9.056,164.763,15.219,79.573,68.168,26.624c3.9-3.898,10.245-3.898,14.142,0l77.782,77.782c3.899,3.898,3.899,10.243,0,14.142
			l-42.426,42.427c-3.085,3.085-3.813,7.814-1.801,11.685c30.721,59.08,164.38,192.739,223.461,223.462
			c3.872,2.012,8.599,1.284,11.685-1.801l42.426-42.427c3.9-3.9,10.243-3.898,14.142,0l77.782,77.782c0,0,0,0,0,0
			C489.27,433.585,489.268,439.911,485.36,443.818z"/>
		<path d="M379.942,262.873c5.523,0,10-4.478,10-10c0-71.683-58.318-130-130-130c-5.523,0-10,4.478-10,10s4.477,10,10,10
			c60.654,0,110,49.346,110,110C369.942,258.396,374.419,262.873,379.942,262.873z"/>
		<path d="M246.789,172.214c-5.523,0-10,4.478-10,10s4.477,10,10,10c40.701,0,73.813,33.112,73.813,73.813c0,5.522,4.477,10,10,10
			s10-4.478,10-10C340.602,214.299,298.517,172.214,246.789,172.214z"/>
		<path d="M243.079,81.746c103.658,0,187.991,84.332,187.991,187.991c0,5.522,4.477,10,10,10s10-4.478,10-10
			c0-114.687-93.304-207.991-207.991-207.991c-5.523,0-10,4.478-10,10S237.556,81.746,243.079,81.746z"/>
	</g>
</g>
<g id="Layer_1">
</g>
</svg>
