<?xml version="1.0" encoding="iso-8859-1"?>
<!-- Generator: Adobe Illustrator 24.1.0, SVG Export Plug-In . SVG Version: 6.00 Build 0)  -->
<svg version="1.1" xmlns="http://www.w3.org/2000/svg" xmlns:xlink="http://www.w3.org/1999/xlink" x="0px" y="0px"
	 viewBox="0 0 512 512" style="enable-background:new 0 0 512 512;" xml:space="preserve">
<g id="_x31_8_x2C__Microphone_x2C__radio_x2C__recording_x2C__sound_x2C__technology">
	<g>
		<g>
			<path d="M399.438,172.063h-53.125v-80.75C346.313,41.514,305.798,1,256,1s-90.313,40.514-90.313,90.313v80.75h-53.125
				c-17.576,0-31.875,14.299-31.875,31.875s14.299,31.875,31.875,31.875v5.313c0,66.234,45.129,122.117,106.25,138.539v56.961
				h-15.938c-20.505,0-37.188,16.683-37.188,37.188S182.37,511,202.875,511h106.25c20.505,0,37.188-16.683,37.188-37.188
				s-16.683-37.188-37.188-37.188h-15.938v-56.961c61.121-16.422,106.25-72.305,106.25-138.539v-5.313
				c17.576,0,31.875-14.299,31.875-31.875S417.013,172.063,399.438,172.063z M256,22.25c38.081,0,69.063,30.981,69.063,69.063v5.313
				h-31.875c-5.868,0-10.625,4.757-10.625,10.625c0,5.868,4.757,10.625,10.625,10.625h31.875v21.25h-31.875
				c-5.868,0-10.625,4.757-10.625,10.625c0,5.868,4.757,10.625,10.625,10.625h31.875v21.25h-31.875
				c-5.868,0-10.625,4.757-10.625,10.625c0,5.868,4.757,10.625,10.625,10.625h31.875v21.25h-31.875
				c-5.868,0-10.625,4.757-10.625,10.625c0,5.868,4.757,10.625,10.625,10.625h31.731c-2.205,36.108-32.266,64.813-68.919,64.813
				s-66.714-28.704-68.919-64.813h31.731c5.868,0,10.625-4.757,10.625-10.625c0-5.868-4.757-10.625-10.625-10.625h-31.875v-21.25
				h31.875c5.868,0,10.625-4.757,10.625-10.625c0-5.868-4.757-10.625-10.625-10.625h-31.875v-21.25h31.875
				c5.868,0,10.625-4.757,10.625-10.625c0-5.868-4.757-10.625-10.625-10.625h-31.875v-21.25h31.875
				c5.868,0,10.625-4.757,10.625-10.625c0-5.868-4.757-10.625-10.625-10.625h-31.875v-5.313C186.938,53.231,217.919,22.25,256,22.25
				z M101.938,203.938c0-5.859,4.766-10.625,10.625-10.625h53.125v21.25h-53.125C106.704,214.563,101.938,209.796,101.938,203.938z
				 M325.063,473.813c0,8.788-7.15,15.938-15.938,15.938h-106.25c-8.788,0-15.938-7.15-15.938-15.938s7.15-15.938,15.938-15.938
				h26.563h53.125h26.563C317.913,457.875,325.063,465.025,325.063,473.813z M271.938,436.625h-31.875v-52.953
				c5.235,0.581,10.55,0.89,15.938,0.89c5.387,0,10.703-0.309,15.938-0.89V436.625z M378.188,241.125
				c0,67.374-54.813,122.188-122.188,122.188s-122.188-54.813-122.188-122.188v-5.313h31.875v5.313
				c0,49.798,40.514,90.313,90.313,90.313s90.313-40.514,90.313-90.313v-5.313h31.875V241.125z M399.438,214.563h-53.125v-21.25
				h53.125c5.859,0,10.625,4.766,10.625,10.625C410.063,209.796,405.296,214.563,399.438,214.563z"/>
		</g>
	</g>
</g>
<g id="Layer_1">
</g>
</svg>
