<?xml version="1.0" encoding="iso-8859-1"?>
<!-- Generator: Adobe Illustrator 24.1.0, SVG Export Plug-In . SVG Version: 6.00 Build 0)  -->
<svg version="1.1" xmlns="http://www.w3.org/2000/svg" xmlns:xlink="http://www.w3.org/1999/xlink" x="0px" y="0px"
	 viewBox="0 0 512 512" style="enable-background:new 0 0 512 512;" xml:space="preserve">
<g id="_x31_7_x2C__Camera_x2C__video_x2C__webcam_x2C__chat._video_camera">
	<g>
		<g>
			<path d="M350.5,431h-11.154l-11.647-64.06C397.025,338.585,446,270.41,446,191C446,86.234,360.766,1,256,1S66,86.234,66,191
				c0,79.41,48.975,147.585,118.301,175.94L172.654,431H161.5c-33.36,0-60.5,27.141-60.5,60.5v9.5c0,5.522,4.477,10,10,10h290
				c5.523,0,10-4.478,10-10v-9.5C411,458.141,383.86,431,350.5,431z M86,191c0-93.738,76.262-170,170-170s170,76.262,170,170
				s-76.262,170-170,170S86,284.738,86,191z M203.42,373.594c33.114,9.55,69.794,10.2,105.16,0L319.018,431H192.982L203.42,373.594z
				 M121.003,491c0.268-22.104,18.332-40,40.497-40c24.616,0,168.093,0,189,0c22.166,0,40.229,17.896,40.497,40H121.003z"/>
			<path d="M376,191c0-66.168-53.832-120-120-120s-120,53.832-120,120s53.832,120,120,120S376,257.168,376,191z M156,191
				c0-55.14,44.86-100,100-100s100,44.86,100,100s-44.86,100-100,100S156,246.14,156,191z"/>
			<path d="M316,191c0-33.084-26.916-60-60-60s-60,26.916-60,60s26.916,60,60,60S316,224.084,316,191z M246,221
				c0-5.514,4.486-10,10-10s10,4.486,10,10s-4.486,10-10,10S246,226.514,246,221z M256,151c22.056,0,40,17.944,40,40
				c0,10.224-3.86,19.559-10.193,26.638C284.13,202.674,271.405,191,256,191s-28.13,11.674-29.807,26.638
				C219.86,210.559,216,201.224,216,191C216,168.944,233.944,151,256,151z"/>
		</g>
	</g>
</g>
<g id="Layer_1">
</g>
</svg>
